# xmcd
#
# Track frame offsets:
#	150
#	16492
#	36166
#	55554
#	75300
#	95290
#	112405
#	130418
#	148439
#	170708
#	190868
#	205133
#	221403
#	240742
#	259137
#
# Disc length: 3693 seconds
#
# Revision: 1
# Processed by: cddbd v1.5.1PL0 Copyright (c) Steve Scherf et al.
# Submitted via: audiograbber 1.82.02
#
DISCID=db0e6b0f
DTITLE=Various Artist - ChartBusters Male Country Vol 3
DYEAR=1900
DGENRE=Karaoke
TTITLE0=Chris Cagle - Country by the grace of God
TTITLE1=Tommy S. Stainer - Tell me where it hurts
TTITLE2=James Otto - The ball
TTITLE3=Alan Jackson - Work in progress
TTITLE4=Montgomery Gentry - My town
TTITLE5=Rascal Flatts - These Days
TTITLE6=Keith Urban - Somebody like you
TTITLE7=Travis Tritt - Strong enough to be your man
TTITLE8=Kenny Chesney - A lot of things different
TTITLE9=John Michael Montgomery - Till nothing comes between us
TTITLE10=Aaron Tippin - If her lovin' don't kill me
TTITLE11=Willie Nelson and Toby Keith - Beer for my horses
TTITLE12=Shannon Lawson - Dream your way to me
TTITLE13=Toby Keith - Who's your daddy
TTITLE14=Aaron Lines - You can't hide beautiful
EXTD=
EXTT0=
EXTT1=
EXTT2=
EXTT3=
EXTT4=
EXTT5=
EXTT6=
EXTT7=
EXTT8=
EXTT9=
EXTT10=
EXTT11=
EXTT12=
EXTT13=
EXTT14=
PLAYORDER=
